<?xml version="1.0" standalone="no"?>
<!DOCTYPE svg PUBLIC "-//W3C//DTD SVG 20010904//EN"
 "http://www.w3.org/TR/2001/REC-SVG-20010904/DTD/svg10.dtd">
<svg version="1.0" xmlns="http://www.w3.org/2000/svg"
 width="512.000000pt" height="512.000000pt" viewBox="0 0 512.000000 512.000000"
 preserveAspectRatio="xMidYMid meet">
<metadata>
Created by potrace 1.14, written by Peter Selinger 2001-2017
</metadata>
<g transform="translate(0.000000,512.000000) scale(0.100000,-0.100000)"
fill="#000000" stroke="none">
<path d="M1883 4720 l-30 -119 21 -14 21 -14 -1 -614 c0 -459 -3 -620 -12
-636 -10 -18 -10 -29 1 -55 17 -43 14 -83 -10 -137 l-20 -44 -13 39 c-7 21
-24 60 -38 87 -21 39 -36 53 -89 79 -57 28 -63 34 -63 62 0 24 7 35 30 48 32
18 37 37 19 69 -6 11 -13 30 -15 42 -3 12 -7 29 -9 37 -2 8 -4 23 -4 32 -1 9
-14 31 -31 49 -23 26 -37 33 -65 32 -67 -2 -95 -39 -95 -124 0 -15 -5 -39 -11
-52 -9 -19 -7 -32 6 -61 10 -20 24 -36 31 -36 22 0 16 -36 -8 -52 -13 -9 -51
-25 -86 -38 -34 -13 -66 -28 -70 -34 -9 -15 -11 -42 -13 -186 -2 -158 14 -225
67 -269 34 -27 36 -32 29 -68 -5 -21 -10 -45 -11 -53 -4 -19 -14 -105 -16
-142 -3 -31 -6 -32 -41 -19 -36 14 -41 33 -52 191 -8 97 -9 147 -7 360 0 67
-1 89 -6 152 -3 29 -71 96 -110 109 -47 15 -50 17 -57 58 -5 29 -2 38 20 55
36 29 51 121 24 144 -10 9 -16 19 -13 24 8 13 -15 74 -34 91 -9 9 -40 19 -67
22 -45 6 -53 4 -83 -22 -28 -23 -34 -36 -36 -73 -2 -25 -6 -57 -10 -71 -5 -16
-3 -29 3 -33 6 -4 11 -21 11 -37 0 -22 7 -32 24 -41 14 -6 28 -18 31 -26 10
-28 -11 -33 -55 -13 -59 26 -186 17 -260 -19 -41 -21 -168 -22 -192 -2 -15 12
-122 16 -240 10 -80 -5 -110 5 -127 43 -14 31 -10 71 24 244 21 110 74 220
136 284 64 66 118 93 214 108 62 9 179 45 231 70 61 30 100 68 139 137 36 62
17 57 -33 -9 -44 -58 -83 -87 -158 -114 -53 -21 -72 -25 -149 -36 -70 -11
-158 -35 -211 -59 -101 -46 -172 -154 -220 -331 -10 -39 -34 -159 -39 -200
-10 -80 -10 -81 -27 -98 -9 -9 -19 -40 -23 -69 -6 -44 -5 -54 11 -65 13 -9 19
-28 20 -61 6 -159 42 -341 86 -430 31 -63 108 -145 157 -166 37 -17 40 -22 46
-70 4 -28 9 -60 11 -71 14 -65 5 -154 -21 -225 -47 -128 -77 -231 -70 -238 3
-4 70 -39 148 -77 l142 -70 -2 -51 c-2 -48 0 -51 40 -76 23 -15 80 -36 125
-47 143 -35 191 -71 192 -140 0 -23 0 -23 -92 -17 -155 11 -210 15 -283 22
-110 10 -144 12 -235 19 -47 3 -102 8 -122 10 l-37 5 6 -37 c4 -20 18 -87 32
-147 l26 -111 50 -7 c28 -5 66 -10 85 -13 19 -3 44 -7 55 -9 11 -3 28 -5 37
-5 11 -1 24 -20 37 -57 38 -99 46 -109 113 -139 35 -15 83 -37 108 -48 139
-62 417 -136 570 -151 30 -4 78 -8 105 -11 100 -11 153 -14 330 -21 99 -3 181
-7 182 -8 1 -1 -5 -21 -13 -45 -60 -176 53 -316 259 -320 l37 -1 0 -115 0
-115 165 0 165 0 1 83 c1 45 2 88 3 96 1 11 25 14 112 15 79 1 116 5 128 15 9
8 19 11 22 8 3 -3 5 -53 5 -111 l-1 -106 62 -1 c35 0 134 -3 222 -5 l158 -4
-7 92 c-3 51 -8 117 -11 146 l-4 52 144 0 143 0 2 -142 c1 -78 3 -144 6 -146
6 -7 492 -5 503 2 10 6 8 193 -2 276 -15 109 -65 250 -123 343 l-23 37 27 1
c16 0 35 2 43 3 8 2 35 6 60 9 125 16 212 29 275 42 39 8 81 16 95 19 61 11
261 67 325 91 309 115 472 301 481 546 3 99 -13 179 -64 318 -74 201 -103 319
-107 426 -4 115 12 189 50 239 27 35 25 65 -4 67 -31 2 -128 -2 -151 -6 -18
-3 -20 -1 -14 13 37 86 78 239 91 342 10 83 10 562 -1 614 -5 26 -23 56 -55
90 -79 84 -92 126 -41 126 28 0 30 2 30 39 0 23 5 41 13 44 9 3 7 10 -6 24
-10 11 -20 33 -23 49 -2 16 -17 39 -32 52 -22 19 -35 22 -72 18 -63 -6 -76
-13 -90 -47 -10 -23 -10 -36 1 -61 13 -33 13 -72 0 -96 -5 -9 -26 1 -77 38
-81 59 -161 88 -196 69 -13 -6 -33 -20 -44 -31 -22 -19 -23 -19 -95 0 -41 12
-99 25 -129 31 -30 6 -66 13 -80 16 -41 8 -153 9 -187 1 -42 -10 -45 -30 -11
-98 33 -68 34 -79 8 -103 -29 -26 -25 -52 11 -70 23 -12 29 -21 23 -33 -17
-40 -16 -77 4 -96 44 -39 261 -18 366 36 50 26 85 19 157 -32 74 -52 98 -60
177 -61 60 -1 69 -4 95 -32 16 -17 37 -48 48 -69 23 -44 16 -65 -34 -107 -77
-64 -87 -83 -127 -233 -48 -175 -89 -249 -219 -388 -96 -102 -184 -250 -167
-278 6 -10 89 -67 210 -143 88 -55 96 -64 96 -102 0 -28 5 -34 44 -50 54 -22
86 -51 86 -78 0 -37 -52 -76 -118 -90 -65 -14 -72 -22 -63 -82 3 -27 5 -27 73
-27 67 0 69 -1 62 -22 -9 -32 -33 -61 -92 -109 -55 -46 -263 -119 -387 -135
-27 -3 -52 -7 -55 -9 -3 -2 -34 -6 -70 -9 -36 -4 -76 -9 -90 -11 -14 -2 -59
-7 -100 -11 -41 -3 -93 -8 -115 -9 -22 -2 -89 -6 -150 -10 -60 -3 -139 -8
-175 -10 -66 -4 -492 -17 -630 -19 l-75 -1 1 250 c1 138 5 432 9 655 l6 405
35 31 c48 45 48 66 0 134 -32 45 -32 46 -30 155 1 61 5 313 9 560 13 884 11
827 34 844 l21 16 -32 127 c-18 70 -33 126 -34 125 -1 -1 -17 -57 -35 -124
-26 -100 -29 -126 -19 -138 7 -8 18 -15 25 -15 10 0 12 -48 10 -222 -5 -290
-16 -904 -20 -1038 -2 -58 -4 -135 -4 -171 -1 -71 -17 -101 -57 -111 -28 -7
-35 -2 -63 55 -35 69 -130 161 -208 201 -24 12 -30 20 -26 36 5 17 11 19 39
14 41 -8 44 3 29 94 -5 29 -4 42 4 42 17 0 13 18 -14 58 -14 20 -25 45 -25 55
0 31 -31 67 -57 67 -51 0 -114 -23 -134 -49 -20 -25 -21 -42 -6 -116 3 -12 -5
-31 -20 -46 l-24 -27 31 -22 c24 -17 30 -27 26 -48 -2 -15 -5 -30 -5 -33 -1
-3 -7 -6 -13 -6 -7 -1 -28 -4 -46 -8 -31 -7 -33 -7 -28 19 4 20 -2 34 -23 55
l-27 28 0 603 c1 601 1 603 22 616 20 14 20 17 7 67 -8 28 -22 82 -30 120 -9
37 -19 67 -23 67 -4 0 -21 -54 -37 -120z m-1626 -1446 c54 -19 113 -42 131
-50 18 -7 36 -14 41 -14 5 0 25 -7 45 -15 l36 -15 -61 -93 c-110 -166 -147
-258 -144 -349 l2 -47 -28 20 c-58 41 -126 158 -154 265 -20 79 -32 224 -26
317 2 27 48 21 158 -19z m1623 -399 c16 0 18 -167 7 -872 -2 -183 -2 -335 2
-338 10 -11 7 -129 -3 -137 -16 -11 -28 3 -15 18 16 20 11 22 -52 30 -64 8
-104 26 -120 56 -11 20 -7 134 5 193 3 11 5 24 5 28 1 5 10 6 20 2 28 -9 37
16 45 120 3 50 9 108 11 130 3 22 7 72 10 110 2 39 8 117 11 175 13 182 9 360
-9 417 -8 28 -13 61 -10 72 4 18 8 18 41 7 21 -6 44 -11 52 -11z m694 -747
c-1 -40 -3 -193 -5 -340 -2 -179 -6 -269 -13 -270 -6 0 -30 -2 -53 -2 -34 -1
-43 2 -43 16 0 22 -14 30 -64 36 -23 2 -49 8 -58 13 -40 21 -32 121 9 127 23
3 25 10 43 127 6 39 13 81 15 95 2 14 7 46 10 72 6 43 10 47 39 53 17 3 48 13
69 22 33 14 37 20 38 55 1 21 3 43 4 48 1 6 3 12 4 15 4 19 6 -5 5 -67z
m-1097 -271 c3 -4 5 -46 4 -94 0 -49 -1 -116 -1 -151 l0 -62 -53 7 c-28 3 -64
7 -79 7 -24 1 -25 2 -11 18 14 15 13 19 -12 42 -24 22 -27 31 -22 65 3 22 20
72 38 112 l33 71 48 -4 c27 -3 51 -8 55 -11z"/>
</g>
</svg>
